<svg xmlns="http://www.w3.org/2000/svg" width="360" height="160" viewBox="0 0 360 160" fill="none"><defs></defs><g transform="translate(130.5 8) scale(0.3021)"><path fill="#FF6F45" fill-rule="evenodd" d="M95.5234 0.867188L149.32 103.48L326.41 39.1299L326.791 40.0537L1.29102 190.554L0 191.15L0.633789 189.877L94.6338 0.876953L95.0693 0L95.5234 0.867188ZM171.023 148.367L181.523 168.367L181.908 169.1H142.581V162.798L142.848 162.657L170.348 148.157L170.791 147.924L171.023 148.367ZM93.1201 59.9062L63.6201 130.406L63.1621 131.499L64.2646 131.064L118.765 109.564L119.276 109.362L119.026 108.872L94.0264 59.8721L93.5361 58.9111L93.1201 59.9062Z"></path></g><text x="180" y="116" text-anchor="middle" font-size="26" font-weight="700" letter-spacing="0.6" fill="#1E1E1E">APEX <tspan font-weight="300" letter-spacing="1.5" fill="#6F6F6F">TECHNOLOGIES</tspan></text><text x="180" y="138" text-anchor="middle" font-size="9.5" font-weight="500" letter-spacing="5" fill="#FF6F45">AUSTRALIA</text></svg>